<?xml version="1.0"?><svg id="Layer_1" style="enable-background:new 0 0 388.452 388.452;" version="1.1" viewBox="0 0 388.452 388.452" xml:space="preserve" xmlns="http://www.w3.org/2000/svg" xmlns:xlink="http://www.w3.org/1999/xlink"><g id="Coconut"><polygon id="XMLID_36_" points="169.308,388.452 31.669,388.452 66.669,336.137 169.308,336.137  " style="fill:#F8E2CE;"/><rect height="230.078" id="XMLID_1251_" style="fill:#996250;" transform="matrix(0.9842 0.1771 -0.1771 0.9842 34.7386 -39.3609)" width="3.001" x="236.425" y="59.936"/><polygon id="XMLID_29_" points="158.139,49.171 269.219,0 356.783,84.198  " style="fill:#F48F4A;"/><polygon id="XMLID_112_" points="271.481,2.174 269.219,0 266.35,1.27 217.389,59.619 220.801,60.22    268.658,3.187 294.121,73.149 297.532,73.75  " style="fill:#FFEFE1;"/><path d="M198.445,350.123L155.28,99.046c-0.011-0.065-0.033-0.194-0.189-0.283   c-0.156-0.09-0.279-0.042-0.323-0.023l-61.299,23.729l-3.61-9.326l61.298-23.729c2.922-1.131,6.157-0.891,8.879,0.657   c2.722,1.549,4.582,4.209,5.103,7.297l43.163,251.062L198.445,350.123z" id="XMLID_1328_" style="fill:#5962B2;"/><polygon id="XMLID_968_" points="291.327,388.368 136.414,388.368 93.207,335.433 93.207,195.692    158.017,145.514 269.724,145.514 334.534,195.692 334.534,335.433  " style="fill:#FFF4D4;"/><polygon id="XMLID_94_" points="291.327,388.368 136.414,388.368 93.207,335.433 93.207,195.692    158.017,145.514 269.724,145.514 334.534,195.692 334.534,335.433  " style="fill:#FFEFE1;"/><path d="M166.102,209.04l-73.232-12.966v139.36l43.543,53.018h154.913l43.543-53.018   V196.075l-72.165,12.891C230.76,214.673,198.057,214.698,166.102,209.04z" id="XMLID_254_" style="fill:#BBEF84;"/><polygon id="XMLID_821_" points="334.292,336.137 290.871,351.452 136.871,351.452 93.788,336.55    136.414,388.452 291.327,388.452  " style="fill:#68B264;"/></g><g/><g/><g/><g/><g/><g/><g/><g/><g/><g/><g/><g/><g/><g/><g/></svg>